<svg width="8" height="14" viewBox="0 0 8 14" fill="none" xmlns="http://www.w3.org/2000/svg">
<path d="M7.99898 7.04351C7.98946 7.32926 7.87439 7.60165 7.67543 7.80899L2.02751 13.6412C1.73581 13.9421 1.30442 14.0658 0.895824 13.9659C0.487245 13.8658 0.163359 13.5574 0.0464929 13.1566C-0.0705502 12.7558 0.036972 12.3236 0.32867 12.0227L5.18992 6.99989L0.328671 1.97708C0.0369708 1.6762 -0.0705497 1.24397 0.0464934 0.843173C0.163368 0.442369 0.487233 0.134014 0.895825 0.0339083C1.3044 -0.0660062 1.73579 0.0576668 2.02751 0.358556L7.67543 6.19079C7.89556 6.41991 8.01227 6.72782 7.99898 7.04384L7.99898 7.04351Z" fill="#2361A9"/>
</svg>
