<svg width="8" height="14" viewBox="0 0 8 14" fill="none" xmlns="http://www.w3.org/2000/svg">
<path d="M0.00102346 6.95626C0.010544 6.6705 0.125614 6.39811 0.324569 6.19078L5.97249 0.358543C6.26419 0.0576535 6.69558 -0.0660037 7.10417 0.0338936C7.51275 0.13397 7.83664 0.442348 7.95351 0.843159C8.07055 1.24396 7.96303 1.67617 7.67133 1.97707L2.81008 6.99988L7.67133 12.0227C7.96303 12.3236 8.07055 12.7558 7.95351 13.1566C7.83663 13.5574 7.51277 13.8657 7.10418 13.9659C6.6956 14.0658 6.26421 13.9421 5.97249 13.6412L0.324569 7.80897C0.104439 7.57985 -0.0122731 7.27195 0.00102346 6.95592L0.00102346 6.95626Z" fill="#2361A9"/>
</svg>
