<svg width="8" height="15" viewBox="0 0 8 15" fill="none" xmlns="http://www.w3.org/2000/svg">
<path d="M0.00102346 7.6456C0.010544 7.37075 0.125614 7.10875 0.324569 6.90933L5.97249 1.29967C6.26419 1.01026 6.69558 0.891324 7.10417 0.987409C7.51275 1.08367 7.83664 1.38027 7.95351 1.76579C8.07055 2.1513 7.96303 2.56701 7.67133 2.85643L2.81008 7.68755L7.67133 12.5187C7.96303 12.8081 8.07055 13.2238 7.95351 13.6093C7.83663 13.9948 7.51277 14.2914 7.10418 14.3877C6.6956 14.4838 6.26421 14.3648 5.97249 14.0754L0.324569 8.46577C0.104439 8.24539 -0.0122731 7.94924 0.00102346 7.64527L0.00102346 7.6456Z" fill="#1E579F"/>
</svg>
