<svg width="24" height="24" viewBox="0 0 24 24" fill="none" xmlns="http://www.w3.org/2000/svg">
<path d="M3.78399 0.0218074C3.61798 -0.0113922 3.41885 -0.0113924 3.28619 0.0550068C1.49386 0.754077 0.365103 3.31672 0.0994959 5.08074C-0.730341 10.8055 3.78397 15.7647 7.93315 19.0265C11.6176 21.9221 18.6878 26.6817 22.8702 22.0886C23.4014 21.5228 24.0321 20.6907 23.9987 19.8586C23.8992 18.4607 22.6046 17.4622 21.6088 16.6967C20.8454 16.1309 19.2519 14.5666 18.2563 14.5998C17.36 14.633 16.7957 15.5649 16.2315 16.131L15.2357 17.1295C15.0696 17.296 12.9452 15.8981 12.713 15.7316C11.85 15.1658 11.0202 14.5334 10.2899 13.8343C9.55969 13.1353 8.89582 12.3698 8.33159 11.5712C8.16558 11.3381 6.80458 9.30803 6.93747 9.14156C6.93747 9.14156 8.09936 7.87673 8.43111 7.37754C9.1283 6.31235 9.65921 5.48026 8.8627 4.21567C8.56401 3.74972 8.19889 3.38359 7.80039 2.98424C7.10321 2.31864 6.40627 1.61957 5.60956 1.05381C5.17798 0.720877 4.44767 0.121871 3.78386 0.0218423L3.78399 0.0218074Z" fill="#2361A9"/>
</svg>
