<svg width="24" height="24" viewBox="0 0 24 24" fill="none" xmlns="http://www.w3.org/2000/svg">
<path fill-rule="evenodd" clip-rule="evenodd" d="M18.4823 19.7901L18.483 19.7884L18.5004 19.7449L21.4992 4.6258V4.57669C21.4992 4.19999 21.36 3.87113 21.0571 3.67387C20.792 3.50121 20.4873 3.48892 20.2736 3.50514C20.0476 3.52229 19.8344 3.57871 19.6869 3.62567C19.611 3.64983 19.5475 3.67311 19.502 3.69071C19.4792 3.69955 19.4608 3.70705 19.4473 3.71263L19.4341 3.71819L2.71429 10.2771L2.70968 10.2788C2.70065 10.2821 2.68871 10.2865 2.67429 10.2921C2.64553 10.3033 2.60639 10.3193 2.56041 10.3402C2.47013 10.3811 2.3454 10.4442 2.21889 10.5309C2.00404 10.678 1.59493 11.0263 1.66401 11.5785C1.72123 12.036 2.03653 12.3265 2.2491 12.4769C2.36305 12.5575 2.47206 12.6156 2.55189 12.6536C2.59234 12.6729 2.6267 12.6876 2.65228 12.6981C2.66511 12.7033 2.67584 12.7075 2.68414 12.7106L2.69476 12.7146L2.70156 12.7171L5.6268 13.7019C5.61692 13.8854 5.63513 14.0726 5.6838 14.2572L7.14908 19.8156C7.32282 20.4747 7.91905 20.9337 8.60062 20.9333C9.21155 20.9328 9.75337 20.5632 9.98356 20.0118L12.2712 17.5657L16.2002 20.578L16.2561 20.6023C16.6131 20.7581 16.9466 20.8075 17.2515 20.7658C17.556 20.7242 17.798 20.5965 17.9797 20.4511C18.1586 20.308 18.2812 20.1465 18.3582 20.0249C18.3974 19.9631 18.4266 19.9088 18.4469 19.868C18.457 19.8475 18.465 19.8301 18.4711 19.8166L18.4786 19.7991L18.4813 19.7927L18.4823 19.7901ZM7.1342 13.8748C7.1009 13.7485 7.15318 13.6151 7.26346 13.5451L17.1855 7.2442C17.1855 7.2442 17.7691 6.8899 17.7482 7.2442C17.7482 7.2442 17.8524 7.30676 17.5396 7.59849C17.243 7.87557 10.468 14.4166 9.78242 15.0785C9.74285 15.1167 9.71923 15.1605 9.70529 15.2137L8.59948 19.4332L7.1342 13.8748Z" fill="#1E579F"/>
</svg>
