<svg width="20" height="20" viewBox="0 0 20 20" fill="none" xmlns="http://www.w3.org/2000/svg">
<path d="M7.92246 5.40766L7.92276 5.40832C8.05402 5.70083 8.27141 6.23024 8.44484 6.65259L8.44827 6.66094C8.51676 6.82774 8.57853 6.97816 8.62669 7.09391C8.6508 7.15184 8.67093 7.19974 8.68648 7.23596C8.70027 7.26808 8.70726 7.2835 8.70928 7.28796C8.7098 7.28911 8.70999 7.28952 8.70988 7.28931C8.81001 7.48871 8.91218 7.81184 8.73216 8.18078L7.92246 5.40766ZM7.92246 5.40766C7.8017 5.13959 7.645 4.92805 7.42418 4.80005M7.92246 5.40766L7.42418 4.80005M11.2559 11.965C11.2017 11.938 11.1338 11.9087 11.0711 11.8817L11.0621 11.8778L11.0609 11.8773C10.7156 11.7283 10.057 11.4441 9.293 10.7639L9.29214 10.7631C8.64583 10.1904 8.18299 9.48318 8.00201 9.18277C8.08921 9.09454 8.18267 8.98156 8.25818 8.89029L8.26714 8.87946C8.31643 8.8199 8.36085 8.76627 8.40256 8.7184L8.40267 8.71827C8.56039 8.53714 8.63266 8.38709 8.70107 8.24506L8.70492 8.23707L8.70492 8.23706L8.73212 8.18086L7.95631 9.1104L7.92758 9.12705L7.92732 9.1272L7.52587 9.35991M11.2559 11.965L11.2467 11.9834C11.2512 11.9782 11.2559 11.9728 11.2606 11.9673M11.2559 11.965C11.2559 11.965 11.2559 11.9649 11.2559 11.9649L11.2466 11.9836C11.2344 11.9978 11.2232 12.0108 11.2133 12.0223L11.2133 12.0223C11.2005 12.0372 11.2008 12.0333 11.2154 12.0241C11.2154 12.0241 11.2154 12.0241 11.2154 12.0241C11.2159 12.0237 11.2164 12.0234 11.217 12.023C11.2209 12.0207 11.2255 12.0181 11.2307 12.0155L11.2231 12.0307L11.2231 12.0308L11.0332 12.4126M11.2559 11.965C11.2575 11.9658 11.2591 11.9665 11.2606 11.9673M11.2606 11.9673C11.3013 11.9872 11.3235 11.9942 11.3315 11.9963C11.3327 11.9966 11.3332 11.9967 11.3332 11.9967C11.3332 11.9967 11.319 11.9938 11.2951 11.9966C11.281 11.9983 11.2662 12.0016 11.2516 12.0068C11.2439 12.0095 11.2369 12.0125 11.2308 12.0155L11.2232 12.0308L11.2232 12.0308L11.0332 12.4126M11.2606 11.9673C11.4497 11.747 11.8519 11.2736 11.9928 11.0662M11.0332 12.4126C11.2904 12.5406 11.4438 12.5209 11.5922 12.3486C11.7406 12.1762 12.2352 11.6001 12.4084 11.3441M11.0332 12.4126C10.9913 12.3918 10.9344 12.3672 10.864 12.3368C10.5017 12.1805 9.78485 11.8712 8.96052 11.1373C8.19376 10.4579 7.67435 9.6159 7.52587 9.35991M11.9928 11.0662C11.9921 11.0673 11.9913 11.0685 11.9906 11.0696L12.4084 11.3441M11.9928 11.0662C11.9933 11.0654 11.9938 11.0647 11.9943 11.064L12.4084 11.3441M11.9928 11.0662C12.1305 10.858 12.3309 10.6876 12.6133 10.6544C12.8403 10.6276 13.0484 10.7053 13.1575 10.746L13.162 10.7477L13.1621 10.7477C13.3081 10.8022 13.7114 10.9933 14.0772 11.1693C14.4573 11.3523 14.8402 11.5404 14.971 11.6055L14.9711 11.6055C15.0181 11.629 15.0625 11.6502 15.1069 11.6715L14.8907 12.1224M12.4084 11.3441C12.5766 11.0881 12.7497 11.1275 12.9872 11.2161C13.2246 11.3047 14.491 11.9251 14.7482 12.0531C14.7991 12.0784 14.8466 12.1012 14.8907 12.1224M7.52587 9.35991L7.92724 9.12711L7.9275 9.12696L7.95628 9.11027L8.02558 8.38994C7.97893 8.44348 7.93034 8.50219 7.88193 8.56069C7.79679 8.66358 7.7122 8.7658 7.63969 8.83802C7.51109 8.96593 7.37748 9.10391 7.52587 9.35991ZM14.8907 12.1224C15.0697 12.2082 15.1913 12.2665 15.2429 12.3535M14.8907 12.1224L15.1069 11.6715L15.1191 11.6774C15.1984 11.7154 15.2939 11.7611 15.3752 11.8108C15.4602 11.8627 15.5855 11.9509 15.6729 12.0984M15.2429 12.3535L15.6729 12.0984M15.2429 12.3535C15.3072 12.4618 15.3072 12.9739 15.0945 13.5746M15.2429 12.3535L15.0945 13.5746M15.2429 12.3535L15.6728 12.0982C15.6729 12.0983 15.6729 12.0983 15.6729 12.0984M15.2429 12.3535L5.45284 10.5726M15.6729 12.0984C15.7525 12.2325 15.769 12.387 15.7752 12.4663C15.7836 12.5722 15.7818 12.6933 15.7708 12.822C15.7486 13.0806 15.6865 13.4006 15.5659 13.7415L15.5646 13.7449C15.3978 14.2053 14.9625 14.5749 14.5911 14.8141C14.2133 15.0574 13.753 15.2604 13.4002 15.2934M15.0945 13.5746C14.8769 14.1752 13.8281 14.7513 13.3532 14.7956M15.0945 13.5746L4.80513 7.62685C4.80513 8.87067 5.70609 10.0762 5.85335 10.2733L5.85882 10.2806M13.3532 14.7956C13.3083 14.7999 13.2635 14.8053 13.2175 14.8108M13.3532 14.7956L13.3997 15.2935C13.3998 15.2934 13.4 15.2934 13.4002 15.2934M13.3532 14.7956L13.4002 15.2934M13.2175 14.8108C12.7823 14.8635 12.2298 14.9303 10.2615 14.1555M13.2175 14.8108L13.2775 15.3072C13.0376 15.3362 12.7372 15.3714 12.2317 15.2866C11.7446 15.2049 11.078 15.0143 10.0783 14.6208M13.2175 14.8108L13.2775 15.3072C13.3247 15.3015 13.3629 15.2969 13.4002 15.2934M10.2615 14.1555C7.83609 13.2018 6.23507 10.8354 5.91138 10.357M10.2615 14.1555L10.0783 14.6208M10.2615 14.1555L10.0785 14.6209C10.0784 14.6208 10.0784 14.6208 10.0783 14.6208M5.91138 10.357C5.88582 10.3192 5.86823 10.2932 5.85882 10.2806M5.91138 10.357L5.49725 10.6371L5.46657 10.5919L5.45822 10.5799C5.45771 10.5791 5.45734 10.5786 5.45709 10.5783L5.45284 10.5726M5.91138 10.357L5.49726 10.6371L5.5029 10.6455C5.8367 11.139 7.50823 13.61 10.0783 14.6208M5.85882 10.2806L5.45828 10.5799L5.45805 10.5796L5.85882 10.2806ZM5.45284 10.5726L5.4528 10.5725L5.45275 10.5725C5.37362 10.4666 5.09115 10.0886 4.82788 9.56835C4.568 9.05476 4.30513 8.36081 4.30513 7.62685C4.30513 6.24151 5.00146 5.50184 5.29555 5.19102L5.29556 5.19102C5.31293 5.17265 5.32677 5.15802 5.33889 5.14495C5.33889 5.14495 5.3389 5.14495 5.3389 5.14494L5.45284 10.5726ZM7.42418 4.80005C7.21322 4.67777 7.00625 4.67264 6.91158 4.67029M7.42418 4.80005L6.91158 4.67029M6.91158 4.67029C6.90847 4.67022 6.90548 4.67014 6.90262 4.67007L6.91158 4.67029ZM5.51821 18.1816C5.4067 18.1212 5.27641 18.1054 5.15371 18.1375L0.714094 19.2971L1.89866 14.9973C1.93427 14.868 1.91648 14.7299 1.84929 14.6139C1.02098 13.1837 0.585346 11.562 0.585938 9.91154V9.91136C0.585938 4.72456 4.83167 0.5 10.0438 0.5C12.578 0.5 14.9494 1.48164 16.7354 3.25928C18.5208 5.03641 19.5018 7.40027 19.5018 9.91626C19.5018 15.103 15.2561 19.3275 10.0439 19.3275H10.039C8.45537 19.3275 6.89977 18.93 5.51821 18.1816Z" fill="#1E579F" stroke="#1E579F" stroke-linejoin="round"/>
</svg>
