<svg width="28" height="28" viewBox="0 0 28 28" fill="none" xmlns="http://www.w3.org/2000/svg">
<path fill-rule="evenodd" clip-rule="evenodd" d="M17.6601 4.04794C17.496 3.88384 17.2734 3.79166 17.0414 3.79166C16.8093 3.79166 16.5867 3.88384 16.4226 4.04794L5.69819 14.7724C5.58825 14.8823 5.5096 15.0196 5.47031 15.17L4.30364 19.6365C4.22514 19.937 4.31187 20.2567 4.53152 20.4763C4.75117 20.696 5.07082 20.7827 5.37137 20.7042L9.83787 19.5375C9.98829 19.4982 10.1255 19.4196 10.2355 19.3097L20.9599 8.58521C21.3016 8.2435 21.3016 7.68948 20.9599 7.34777L17.6601 4.04794ZM7.1035 15.842L17.0414 5.90409L19.1038 7.96649L9.16589 17.9043L6.37433 18.6335L7.1035 15.842Z" fill="#2361A9"/>
<path d="M4.66699 22.4583C4.18374 22.4583 3.79199 22.8501 3.79199 23.3333C3.79199 23.8166 4.18374 24.2083 4.66699 24.2083H22.167C22.6502 24.2083 23.042 23.8166 23.042 23.3333C23.042 22.8501 22.6502 22.4583 22.167 22.4583H4.66699Z" fill="#2361A9"/>
</svg>
