<svg width="12" height="7" viewBox="0 0 12 7" fill="none" xmlns="http://www.w3.org/2000/svg">
<path d="M5.95638 0.0010243C5.67063 0.0105453 5.39824 0.125616 5.1909 0.32457L0.358664 4.97249C0.0577753 5.26419 -0.0658818 5.69558 0.0340156 6.10418C0.134092 6.51276 0.442469 6.83664 0.843281 6.95351C1.24408 7.07055 1.67629 6.96303 1.97719 6.67133L6 2.81008L10.0228 6.67133C10.3237 6.96303 10.7559 7.07055 11.1567 6.95351C11.5575 6.83663 11.8659 6.51277 11.966 6.10418C12.0659 5.6956 11.9422 5.26421 11.6413 4.97249L6.80909 0.32457C6.57997 0.10444 6.2724 -0.0122719 5.95638 0.0010243Z" fill="#2361A9"/>
</svg>
